<mxfile host="app.diagrams.net" modified="2021-07-04T19:29:28.949Z" agent="5.0 (Windows NT 10.0; Win64; x64) AppleWebKit/537.36 (KHTML, like Gecko) Chrome/91.0.4472.114 Safari/537.36" etag="UONt7r8CcCLkn-QGB_oQ" version="14.7.10" type="github">
  <diagram id="OKIoAL-VCieIFSUI07bz" name="Page-1">
    <mxGraphModel dx="1662" dy="798" grid="1" gridSize="10" guides="1" tooltips="1" connect="1" arrows="1" fold="1" page="1" pageScale="1" pageWidth="827" pageHeight="1169" math="0" shadow="0">
      <root>
        <mxCell id="0" />
        <mxCell id="1" parent="0" />
        <mxCell id="-_RBuSt7bZoVkoDJukNx-1" value="" style="verticalLabelPosition=bottom;html=1;verticalAlign=top;align=center;strokeColor=none;fillColor=#00BEF2;shape=mxgraph.azure.azure_active_directory;" vertex="1" parent="1">
          <mxGeometry x="280" y="90" width="47.5" height="50" as="geometry" />
        </mxCell>
        <mxCell id="-_RBuSt7bZoVkoDJukNx-2" value="" style="verticalLabelPosition=bottom;html=1;verticalAlign=top;align=center;strokeColor=none;fillColor=#00BEF2;shape=mxgraph.azure.azure_website;pointerEvents=1;" vertex="1" parent="1">
          <mxGeometry x="125" y="190" width="50" height="50" as="geometry" />
        </mxCell>
        <mxCell id="-_RBuSt7bZoVkoDJukNx-8" value="" style="verticalLabelPosition=bottom;html=1;verticalAlign=top;align=center;strokeColor=none;fillColor=#00BEF2;shape=mxgraph.azure.database;" vertex="1" parent="1">
          <mxGeometry x="125" y="310" width="37.5" height="50" as="geometry" />
        </mxCell>
        <mxCell id="-_RBuSt7bZoVkoDJukNx-9" value="CarehomeBookingTest Resource Group" style="rounded=0;whiteSpace=wrap;html=1;" vertex="1" parent="1">
          <mxGeometry x="70" y="20" width="170" height="60" as="geometry" />
        </mxCell>
      </root>
    </mxGraphModel>
  </diagram>
</mxfile>
